<?xml version="1.0" standalone="no"?>
<!DOCTYPE svg PUBLIC "-//W3C//DTD SVG 20010904//EN"
 "http://www.w3.org/TR/2001/REC-SVG-20010904/DTD/svg10.dtd">
<svg version="1.0" xmlns="http://www.w3.org/2000/svg"
 width="500.000000pt" height="500.000000pt" viewBox="0 0 500.000000 500.000000"
 preserveAspectRatio="xMidYMid meet">

<g transform="translate(0.000000,500.000000) scale(0.100000,-0.100000)"
fill="#000000" stroke="none">
<path d="M2445 4626 c-30 -41 -55 -80 -55 -85 0 -11 101 -91 115 -91 14 0 115
80 115 91 0 11 -107 159 -115 159 -3 0 -30 -34 -60 -74z"/>
<path d="M2268 4204 c-117 -102 -219 -188 -226 -191 -7 -3 -101 30 -208 73
-201 81 -224 85 -232 40 -4 -17 223 -652 240 -673 8 -10 152 -13 658 -13 506
0 650 3 658 13 13 16 242 648 242 668 0 19 -20 39 -39 39 -8 0 -97 -34 -198
-75 -100 -41 -187 -75 -192 -75 -5 0 -108 85 -228 190 -138 120 -226 190 -240
190 -14 0 -98 -66 -235 -186z"/>
<path d="M1430 4306 l0 -65 54 -12 c72 -16 86 -9 86 41 0 39 -2 41 -60 70 -33
16 -64 30 -70 30 -6 0 -10 -27 -10 -64z"/>
<path d="M3501 4340 l-63 -30 7 -38 c11 -60 5 -58 108 -31 l37 10 0 59 c0 41
-4 60 -12 60 -7 0 -42 -14 -77 -30z"/>
<path d="M1933 4328 c-6 -7 -26 -55 -45 -105 -27 -71 -33 -95 -24 -103 17 -14
143 -60 164 -60 9 0 41 22 71 48 l53 47 -100 93 c-55 50 -102 92 -105 92 -2 0
-9 -6 -14 -12z"/>
<path d="M2953 4238 l-95 -93 54 -47 c29 -27 60 -50 68 -53 20 -6 161 49 170
66 11 21 -68 219 -87 219 -9 0 -58 -42 -110 -92z"/>
<path d="M1782 3338 l3 -53 730 0 730 0 0 50 0 50 -733 3 -733 2 3 -52z"/>
<path d="M1597 3170 c-69 -52 -164 -145 -199 -192 l-19 -28 40 0 c23 0 41 -3
41 -6 0 -3 -63 -69 -141 -147 -151 -152 -220 -236 -252 -307 -19 -42 -20 -59
-14 -305 8 -347 42 -583 101 -710 44 -94 40 -94 135 -10 46 41 87 75 90 75 4
0 12 -57 19 -128 30 -305 113 -591 205 -705 l22 -28 95 105 c52 57 98 104 101
103 4 -1 42 -49 85 -107 137 -182 318 -346 493 -444 89 -51 98 -52 166 -15
188 100 400 289 530 473 l69 99 102 -108 102 -108 41 62 c89 138 166 429 187
709 4 51 10 92 14 92 4 0 45 -33 91 -74 46 -41 87 -72 92 -69 19 12 71 135 92
218 42 165 59 337 59 616 l1 256 -36 54 c-50 75 -191 231 -288 319 -45 41 -81
77 -81 82 0 4 19 8 41 8 l41 0 -27 38 c-47 63 -97 111 -178 173 l-78 59 -838
0 -838 0 -66 -50z m763 -341 l146 -74 145 73 c91 47 162 76 190 79 41 5 49 1
104 -40 99 -74 181 -182 216 -286 15 -43 19 -77 17 -147 -3 -107 1 -114 91
-162 67 -36 111 -75 111 -97 0 -33 -32 -73 -145 -185 -64 -63 -121 -125 -125
-137 -5 -13 -3 -64 6 -130 28 -215 19 -252 -91 -371 -66 -71 -136 -122 -168
-122 -26 0 -52 -36 -82 -112 -34 -85 -90 -148 -151 -166 -49 -14 -185 -16
-234 -2 -61 17 -110 67 -147 149 -51 116 -55 121 -82 128 -67 16 -138 72 -224
178 -57 70 -63 115 -42 290 9 74 14 144 10 154 -3 10 -60 71 -126 137 -117
116 -149 156 -149 189 0 22 39 56 116 101 84 49 94 69 87 165 -12 154 65 292
238 429 49 38 57 42 98 37 28 -3 99 -32 191 -78z"/>
<path d="M2326 2389 c-4 -28 -14 -69 -23 -91 l-16 -39 -17 29 c-42 69 -125
102 -257 102 -98 0 -99 -3 -45 -80 65 -94 148 -120 260 -81 28 10 52 17 52 15
0 -1 -16 -21 -35 -44 -19 -23 -40 -60 -46 -83 -17 -64 -6 -202 21 -260 12 -26
25 -49 29 -51 3 -2 19 6 34 18 l28 22 -20 45 c-16 33 -21 66 -21 130 0 82 2
89 33 135 63 92 97 179 97 252 0 30 -2 32 -34 32 -33 0 -34 -1 -40 -51z"/>
<path d="M2600 2406 c0 -57 37 -159 84 -230 30 -45 46 -83 51 -114 7 -54 -7
-138 -31 -183 -16 -31 -15 -32 13 -54 15 -13 31 -21 34 -19 23 14 52 107 57
181 6 99 -9 165 -49 215 -16 20 -29 39 -29 41 0 2 24 -4 53 -14 91 -32 163
-19 222 38 36 35 81 111 71 120 -11 11 -183 6 -221 -7 -50 -16 -101 -54 -125
-92 l-17 -29 -16 39 c-9 22 -19 63 -23 91 -6 50 -7 51 -40 51 -32 0 -34 -2
-34 -34z"/>
<path d="M2245 1744 c-25 -25 -46 -73 -43 -97 4 -26 94 -91 196 -142 l73 -36
-3 -47 -3 -47 -82 -35 c-45 -19 -84 -38 -88 -41 -3 -4 0 -21 7 -38 l13 -30 89
40 c49 22 99 39 110 36 12 -2 58 -21 104 -41 l83 -36 10 28 c5 15 10 31 12 35
1 5 -38 26 -88 47 l-90 38 -3 50 -3 51 46 20 c71 31 215 129 215 146 0 26 -43
104 -59 107 -9 2 -49 -7 -90 -20 -41 -12 -93 -25 -116 -29 -43 -5 -143 13
-224 42 -53 18 -46 18 -66 -1z"/>
</g>
</svg>
